# Blender 3.5.0
# www.blender.org
mtllib Bowl.mtl
o Sphere
v -0.000000 0.197548 -0.993140
v -0.001412 -0.306988 -0.781626
v 0.702256 0.197548 -0.702256
v 0.557653 -0.307008 -0.547945
v 0.377161 -0.526659 -0.377045
v 0.993140 0.197548 0.000000
v 0.782338 -0.306956 0.001009
v 0.533363 -0.526696 0.000006
v 0.641072 -0.078834 0.641168
v 0.702256 0.197548 0.702256
v 0.549127 -0.306785 0.559716
v 0.377140 -0.526724 0.377170
v 0.641177 -0.078720 -0.640851
v -0.000000 0.197548 0.993140
v 0.001347 -0.307000 0.781636
v 0.000007 -0.526682 0.533341
v -0.000015 -0.078786 -0.906641
v -0.702256 0.197548 0.702256
v -0.551576 -0.306943 0.554349
v -0.377124 -0.526687 0.377131
v 0.906547 -0.078755 -0.000001
v -0.993139 0.197548 -0.000000
v -0.782311 -0.306935 -0.001268
v -0.533350 -0.526694 -0.000005
v -0.702255 0.197548 -0.702256
v -0.558935 -0.306863 -0.548483
v -0.377159 -0.526705 -0.377125
v -0.641127 -0.078795 -0.641032
v -0.906572 -0.078764 -0.000016
v -0.641033 -0.078760 0.641056
v 0.000016 -0.078733 0.906522
v -0.000003 -0.526690 -0.533311
v 0.358986 -0.594914 -0.358964
v 0.507678 -0.594921 0.000002
v 0.358982 -0.594926 0.358987
v 0.000001 -0.594918 0.507674
v -0.358978 -0.594919 0.358980
v 0.000000 -0.603099 0.000000
v -0.507675 -0.594920 -0.000001
v -0.358985 -0.594922 -0.358979
v -0.000001 -0.594919 -0.507668
vn 0.3420 -0.4559 -0.8217
vn 0.6375 -0.7245 -0.2622
vn 0.3401 -0.4428 0.8296
vn 0.8242 -0.4510 0.3426
vn -0.6362 -0.7260 -0.2613
vn -0.8726 -0.3285 -0.3614
vn -0.8874 -0.2781 0.3676
vn 0.6385 -0.7223 0.2658
vn -0.6392 -0.7219 0.2652
vn 0.2602 -0.7262 0.6363
vn -0.2664 -0.7214 -0.6393
vn -0.3406 -0.4503 0.8253
vn -0.8875 -0.2779 -0.3676
vn -0.2635 -0.7226 0.6390
vn 0.3616 -0.3278 -0.8728
vn -0.8241 -0.4518 0.3417
vn -0.3676 -0.2779 -0.8875
vn -0.8727 -0.3283 0.3615
vn -0.8289 -0.4433 -0.3410
vn 0.8726 -0.3286 0.3614
vn 0.8726 -0.3283 -0.3615
vn -0.3615 -0.3283 0.8727
vn -0.3425 -0.4531 -0.8230
vn 0.2668 -0.7200 -0.6406
vn 0.3614 -0.3286 0.8726
vn -0.3614 -0.3282 -0.8727
vn 0.8875 -0.2780 -0.3676
vn 0.3677 -0.2782 -0.8874
vn 0.3675 -0.2779 0.8875
vn 0.8875 -0.2779 0.3675
vn -0.3675 -0.2781 0.8874
vn 0.0161 -0.9998 0.0067
vn 0.0067 -0.9998 0.0161
vn -0.0067 -0.9998 0.0161
vn -0.0067 -0.9998 -0.0161
vn -0.0161 -0.9998 0.0067
vn -0.0161 -0.9998 -0.0067
vn 0.0067 -0.9998 -0.0161
vn 0.0161 -0.9998 -0.0067
vn 0.8273 -0.4466 -0.3407
vt 0.000090 0.999910
vt 0.498853 0.999910
vt 0.000000 0.750000
vt 0.000000 0.500000
vt 0.500000 0.750000
vt 0.500000 0.500000
vt 0.498853 0.999910
vt 0.000090 0.999910
vt 0.500000 0.750000
vt 0.000000 0.500000
vt 0.500000 0.500000
vt 0.500000 0.250000
vt -0.000000 0.250000
vt 0.000090 0.999910
vt 0.498853 0.999910
vt 0.000000 0.750000
vt 0.500000 0.500000
vt 0.000000 0.500000
vt 0.500000 0.250000
vt -0.000000 0.250000
vt 0.000000 0.500000
vt 0.500000 0.500000
vt 0.499753 0.751080
vt 0.001115 0.751024
vt 0.498853 0.999910
vt 0.000090 0.999910
vt 0.000000 0.750000
vt 0.500000 0.750000
vt 0.000000 0.500000
vt 0.500000 0.500000
vt -0.000000 0.250000
vt 0.500000 0.250000
vt 0.500000 0.500000
vt 0.499753 0.751080
vt 0.001115 0.751024
vt 0.500000 0.750000
vt 0.000090 0.999910
vt 0.498853 0.999910
vt 0.500000 0.750000
vt 0.000000 0.500000
vt 0.000000 0.750000
vt 0.500000 0.500000
vt 0.500000 0.250000
vt -0.000000 0.250000
vt 0.000000 0.500000
vt 0.001115 0.751024
vt 0.500000 0.500000
vt 0.499753 0.751080
vt 0.498853 0.999910
vt 0.000090 0.999910
vt 0.500000 0.500000
vt 0.500000 0.750000
vt 0.000000 0.500000
vt 0.000000 0.750000
vt 0.500000 0.250000
vt -0.000000 0.250000
vt 0.000000 0.500000
vt 0.001115 0.751024
vt 0.499753 0.751080
vt 0.000000 0.750000
vt 0.000090 0.999910
vt 0.498853 0.999910
vt 0.500000 0.500000
vt 0.000000 0.500000
vt 0.500000 0.750000
vt 0.000000 0.750000
vt 0.500000 0.250000
vt -0.000000 0.250000
vt 0.000090 0.999910
vt 0.498853 0.999910
vt 0.000000 0.500000
vt 0.500000 0.500000
vt 0.500000 0.750000
vt 0.000000 0.750000
vt -0.000000 0.250000
vt 0.500000 0.250000
vt 0.001115 0.751024
vt 0.499753 0.751080
vt 0.500000 0.500000
vt 0.000000 0.500000
vt 0.001115 0.751024
vt 0.499753 0.751080
vt 0.500000 0.500000
vt 0.000000 0.500000
vt 0.499753 0.751080
vt 0.500000 0.500000
vt 0.000000 0.500000
vt 0.001115 0.751024
vt 0.500000 0.500000
vt 0.000000 0.500000
vt 0.001115 0.751024
vt 0.499753 0.751080
vt 0.500000 0.250000
vt -0.000000 0.250000
vt -0.000000 0.187500
vt 0.500000 0.187500
vt 0.625000 0.062500
vt 0.500000 0.187500
vt -0.000000 0.187500
vt 0.500000 0.062500
vt -0.000000 0.187500
vt 0.500000 0.187500
vt 0.375000 0.062500
vt 0.500000 0.187500
vt -0.000000 0.187500
vt 0.250000 0.062500
vt 0.500000 0.187500
vt -0.000000 0.187500
vt 0.125000 0.062500
vt 0.484375 0.000000
vt 0.359375 0.000000
vt 0.234375 0.000000
vt 0.859375 0.000000
vt 0.109375 0.000000
vt 0.984375 0.000000
vt 0.734375 0.000000
vt 0.609375 0.000000
vt 0.500000 0.187500
vt -0.000000 0.187500
vt 0.000000 0.062500
vt -0.000000 0.187500
vt 0.500000 0.187500
vt 0.875000 0.062500
vt 0.500000 0.187500
vt -0.000000 0.187500
vt 0.750000 0.062500
s 0
usemtl Bowl
f 13/33/1 4/9/1 2/3/1 17/45/1
f 5/12/2 4/11/2 7/18/2 8/20/2
f 31/89/3 15/39/3 11/27/3 9/21/3
f 9/22/4 11/28/4 7/16/4 21/57/4
f 26/71/5 27/75/5 24/67/5 23/63/5
f 24/67/6 27/75/6 40/121/6 39/118/6
f 22/61/7 29/81/7 30/85/7 18/49/7
f 8/19/8 7/17/8 11/29/8 12/31/8
f 23/64/9 24/68/9 20/55/9 19/51/9
f 15/40/10 16/44/10 12/32/10 11/30/10
f 2/4/11 32/94/11 27/76/11 26/72/11
f 30/86/12 19/52/12 15/41/12 31/90/12
f 25/69/13 28/77/13 29/82/13 22/62/13
f 19/53/14 20/56/14 16/43/14 15/42/14
f 32/93/15 5/13/15 33/95/15 41/124/15
f 29/83/16 23/65/16 19/54/16 30/87/16
f 1/1/17 17/46/17 28/78/17 25/70/17
f 20/55/18 24/68/18 39/119/18 37/107/18
f 28/79/19 26/73/19 23/66/19 29/84/19
f 8/19/20 12/31/20 35/101/20 34/98/20
f 5/12/21 8/20/21 34/99/21 33/96/21
f 16/43/22 20/56/22 37/108/22 36/104/22
f 17/47/23 2/5/23 26/74/23 28/80/23
f 2/6/24 4/10/24 5/13/24 32/93/24
f 12/32/25 16/44/25 36/105/25 35/102/25
f 27/76/26 32/94/26 41/125/26 40/122/26
f 13/34/27 3/7/27 6/14/27 21/58/27
f 3/8/28 13/35/28 17/48/28 1/2/28
f 14/37/29 31/91/29 9/23/29 10/25/29
f 10/26/30 9/24/30 21/59/30 6/15/30
f 18/50/31 30/88/31 31/92/31 14/38/31
f 35/103/32 38/110/32 34/100/32
f 36/106/33 38/111/33 35/103/33
f 37/109/34 38/112/34 36/106/34
f 38/113/35 40/123/35 41/126/35
f 39/120/36 38/114/36 37/109/36
f 40/123/37 38/115/37 39/120/37
f 38/116/38 41/126/38 33/97/38
f 34/100/39 38/117/39 33/97/39
f 4/11/40 13/36/40 21/60/40 7/18/40
