# Blender 3.5.0
# www.blender.org
mtllib Cup.mtl
o Cylinder
v 0.000116 0.000000 -0.999933
v 0.000000 2.000000 -1.000000
v 0.866025 0.000000 -0.500000
v 0.866025 2.000000 -0.500000
v 0.866025 0.000000 0.500000
v 0.866025 2.000000 0.500000
v 0.000000 0.000000 1.000000
v 0.000000 2.000000 1.000000
v -0.866025 0.000000 0.500000
v -0.866025 2.000000 0.500000
v -0.866025 0.000000 -0.500000
v -0.866025 2.000000 -0.500000
v -0.000000 0.000000 -0.000000
vn 0.5000 -0.0000 -0.8660
vn 1.0000 -0.0000 -0.0000
vn 0.5000 -0.0000 0.8660
vn -0.5000 -0.0000 0.8660
vn -1.0000 -0.0000 -0.0000
vn -0.4999 -0.0000 -0.8661
vn -0.0000 -1.0000 -0.0000
vt 1.000000 0.500000
vt -0.000000 0.500000
vt 0.750055 0.489968
vt 1.000000 1.000000
vt -0.000000 1.000000
vt 0.833333 0.500000
vt 0.957846 0.370000
vt 0.833333 1.000000
vt 0.666667 0.500000
vt 0.957846 0.130000
vt 0.666667 1.000000
vt 0.500000 0.500000
vt 0.750000 0.010000
vt 0.500000 1.000000
vt 0.333333 0.500000
vt 0.542154 0.130000
vt 0.333333 1.000000
vt 0.166667 0.500000
vt 0.542154 0.370000
vt 0.166667 1.000000
vt 0.750000 0.250000
s 0
f 1/1/1 2/4/1 4/8/1 3/6/1
f 3/6/2 4/8/2 6/11/2 5/9/2
f 5/9/3 6/11/3 8/14/3 7/12/3
f 7/12/4 8/14/4 10/17/4 9/15/4
f 9/15/5 10/17/5 12/20/5 11/18/5
f 11/18/6 12/20/6 2/5/6 1/2/6
f 11/19/7 13/21/7 9/16/7
f 1/3/7 13/21/7 11/19/7
f 9/16/7 13/21/7 7/13/7
f 7/13/7 13/21/7 5/10/7
f 13/21/7 3/7/7 5/10/7
f 3/7/7 13/21/7 1/3/7
