# Blender 3.5.0
# www.blender.org
mtllib Plate.mtl
o Sphere
v -0.000008 -0.371404 -0.993103
v -0.001610 -0.520323 -0.780853
v 0.702248 -0.371404 -0.702219
v 0.557455 -0.520342 -0.547171
v 0.377152 -0.570418 -0.376998
v 0.993132 -0.371404 0.000037
v 0.782140 -0.520291 0.001783
v 0.533355 -0.570455 0.000052
v 0.641075 -0.456142 0.641302
v 0.702248 -0.371404 0.702293
v 0.548929 -0.520119 0.560490
v 0.377131 -0.570483 0.377217
v 0.641180 -0.456028 -0.640717
v -0.000008 -0.371404 0.993176
v 0.001149 -0.520334 0.782410
v -0.000002 -0.570441 0.533387
v -0.000012 -0.456094 -0.906507
v -0.702263 -0.371404 0.702292
v -0.551774 -0.520278 0.555122
v -0.377132 -0.570446 0.377178
v 0.906551 -0.456062 0.000133
v -0.993147 -0.371404 0.000037
v -0.782510 -0.520270 -0.000494
v -0.533359 -0.570453 0.000041
v -0.702263 -0.371404 -0.702219
v -0.559133 -0.520197 -0.547710
v -0.377168 -0.570464 -0.377078
v -0.641123 -0.456103 -0.640898
v -0.906568 -0.456071 0.000118
v -0.641029 -0.456068 0.641190
v 0.000020 -0.456041 0.906656
v -0.000012 -0.570449 -0.533265
v 0.358986 -0.594914 -0.358964
v 0.507678 -0.594921 0.000002
v 0.358982 -0.594926 0.358987
v 0.000001 -0.594918 0.507674
v -0.358978 -0.594919 0.358980
v 0.000000 -0.603099 0.000000
v -0.507675 -0.594920 -0.000001
v -0.358985 -0.594922 -0.358979
v -0.000001 -0.594919 -0.507668
vn 0.1843 -0.8775 -0.4428
vn 0.1965 -0.9772 -0.0808
vn 0.1884 -0.8680 0.4594
vn 0.4490 -0.8738 0.1867
vn -0.1958 -0.9773 -0.0805
vn -0.6633 -0.6961 -0.2747
vn -0.6717 -0.6866 0.2782
vn 0.1973 -0.9769 0.0823
vn -0.1971 -0.9770 0.0818
vn 0.0800 -0.9775 0.1952
vn -0.0827 -0.9767 -0.1982
vn -0.1868 -0.8720 0.4525
vn -0.6717 -0.6867 -0.2782
vn -0.0811 -0.9771 0.1965
vn 0.2754 -0.6944 -0.6648
vn -0.4499 -0.8734 0.1866
vn -0.2782 -0.6868 -0.6715
vn -0.6631 -0.6963 0.2747
vn -0.4569 -0.8694 -0.1880
vn 0.6629 -0.6966 0.2745
vn 0.6638 -0.6955 -0.2750
vn -0.2746 -0.6965 0.6629
vn -0.1854 -0.8759 -0.4455
vn 0.0828 -0.9765 -0.1988
vn 0.2744 -0.6969 0.6626
vn -0.2750 -0.6953 -0.6640
vn 0.6715 -0.6869 -0.2781
vn 0.2781 -0.6873 -0.6711
vn 0.2783 -0.6860 0.6723
vn 0.6720 -0.6862 0.2783
vn -0.2782 -0.6865 0.6718
vn 0.0161 -0.9998 0.0067
vn 0.0067 -0.9998 0.0161
vn -0.0067 -0.9998 0.0161
vn -0.0067 -0.9998 -0.0161
vn -0.0161 -0.9998 0.0067
vn -0.0161 -0.9998 -0.0067
vn 0.0067 -0.9998 -0.0161
vn 0.0161 -0.9998 -0.0067
vn 0.4530 -0.8717 -0.1866
vt 0.000090 0.999910
vt 0.498853 0.999910
vt 0.000000 0.750000
vt 0.000000 0.500000
vt 0.500000 0.750000
vt 0.500000 0.500000
vt 0.498853 0.999910
vt 0.000090 0.999910
vt 0.500000 0.750000
vt 0.000000 0.500000
vt 0.500000 0.500000
vt 0.500000 0.250000
vt -0.000000 0.250000
vt 0.000090 0.999910
vt 0.498853 0.999910
vt 0.000000 0.750000
vt 0.500000 0.500000
vt 0.000000 0.500000
vt 0.500000 0.250000
vt -0.000000 0.250000
vt 0.000000 0.500000
vt 0.500000 0.500000
vt 0.499753 0.751080
vt 0.001115 0.751024
vt 0.498853 0.999910
vt 0.000090 0.999910
vt 0.000000 0.750000
vt 0.500000 0.750000
vt 0.000000 0.500000
vt 0.500000 0.500000
vt -0.000000 0.250000
vt 0.500000 0.250000
vt 0.500000 0.500000
vt 0.499753 0.751080
vt 0.001115 0.751024
vt 0.500000 0.750000
vt 0.000090 0.999910
vt 0.498853 0.999910
vt 0.500000 0.750000
vt 0.000000 0.500000
vt 0.000000 0.750000
vt 0.500000 0.500000
vt 0.500000 0.250000
vt -0.000000 0.250000
vt 0.000000 0.500000
vt 0.001115 0.751024
vt 0.500000 0.500000
vt 0.499753 0.751080
vt 0.498853 0.999910
vt 0.000090 0.999910
vt 0.500000 0.500000
vt 0.500000 0.750000
vt 0.000000 0.500000
vt 0.000000 0.750000
vt 0.500000 0.250000
vt -0.000000 0.250000
vt 0.000000 0.500000
vt 0.001115 0.751024
vt 0.499753 0.751080
vt 0.000000 0.750000
vt 0.000090 0.999910
vt 0.498853 0.999910
vt 0.500000 0.500000
vt 0.000000 0.500000
vt 0.500000 0.750000
vt 0.000000 0.750000
vt 0.500000 0.250000
vt -0.000000 0.250000
vt 0.000090 0.999910
vt 0.498853 0.999910
vt 0.000000 0.500000
vt 0.500000 0.500000
vt 0.500000 0.750000
vt 0.000000 0.750000
vt -0.000000 0.250000
vt 0.500000 0.250000
vt 0.001115 0.751024
vt 0.499753 0.751080
vt 0.500000 0.500000
vt 0.000000 0.500000
vt 0.001115 0.751024
vt 0.499753 0.751080
vt 0.500000 0.500000
vt 0.000000 0.500000
vt 0.499753 0.751080
vt 0.500000 0.500000
vt 0.000000 0.500000
vt 0.001115 0.751024
vt 0.500000 0.500000
vt 0.000000 0.500000
vt 0.001115 0.751024
vt 0.499753 0.751080
vt 0.500000 0.250000
vt -0.000000 0.250000
vt -0.000000 0.187500
vt 0.500000 0.187500
vt 0.625000 0.062500
vt 0.500000 0.187500
vt -0.000000 0.187500
vt 0.500000 0.062500
vt -0.000000 0.187500
vt 0.500000 0.187500
vt 0.375000 0.062500
vt 0.500000 0.187500
vt -0.000000 0.187500
vt 0.250000 0.062500
vt 0.500000 0.187500
vt -0.000000 0.187500
vt 0.125000 0.062500
vt 0.484375 0.000000
vt 0.359375 0.000000
vt 0.234375 0.000000
vt 0.859375 0.000000
vt 0.109375 0.000000
vt 0.984375 0.000000
vt 0.734375 0.000000
vt 0.609375 0.000000
vt 0.500000 0.187500
vt -0.000000 0.187500
vt 0.000000 0.062500
vt -0.000000 0.187500
vt 0.500000 0.187500
vt 0.875000 0.062500
vt 0.500000 0.187500
vt -0.000000 0.187500
vt 0.750000 0.062500
s 0
usemtl Bowl
f 13/33/1 4/9/1 2/3/1 17/45/1
f 5/12/2 4/11/2 7/18/2 8/20/2
f 31/89/3 15/39/3 11/27/3 9/21/3
f 9/22/4 11/28/4 7/16/4 21/57/4
f 26/71/5 27/75/5 24/67/5 23/63/5
f 24/67/6 27/75/6 40/121/6 39/118/6
f 22/61/7 29/81/7 30/85/7 18/49/7
f 8/19/8 7/17/8 11/29/8 12/31/8
f 23/64/9 24/68/9 20/55/9 19/51/9
f 15/40/10 16/44/10 12/32/10 11/30/10
f 2/4/11 32/94/11 27/76/11 26/72/11
f 30/86/12 19/52/12 15/41/12 31/90/12
f 25/69/13 28/77/13 29/82/13 22/62/13
f 19/53/14 20/56/14 16/43/14 15/42/14
f 32/93/15 5/13/15 33/95/15 41/124/15
f 29/83/16 23/65/16 19/54/16 30/87/16
f 1/1/17 17/46/17 28/78/17 25/70/17
f 20/55/18 24/68/18 39/119/18 37/107/18
f 28/79/19 26/73/19 23/66/19 29/84/19
f 8/19/20 12/31/20 35/101/20 34/98/20
f 5/12/21 8/20/21 34/99/21 33/96/21
f 16/43/22 20/56/22 37/108/22 36/104/22
f 17/47/23 2/5/23 26/74/23 28/80/23
f 2/6/24 4/10/24 5/13/24 32/93/24
f 12/32/25 16/44/25 36/105/25 35/102/25
f 27/76/26 32/94/26 41/125/26 40/122/26
f 13/34/27 3/7/27 6/14/27 21/58/27
f 3/8/28 13/35/28 17/48/28 1/2/28
f 14/37/29 31/91/29 9/23/29 10/25/29
f 10/26/30 9/24/30 21/59/30 6/15/30
f 18/50/31 30/88/31 31/92/31 14/38/31
f 35/103/32 38/110/32 34/100/32
f 36/106/33 38/111/33 35/103/33
f 37/109/34 38/112/34 36/106/34
f 38/113/35 40/123/35 41/126/35
f 39/120/36 38/114/36 37/109/36
f 40/123/37 38/115/37 39/120/37
f 38/116/38 41/126/38 33/97/38
f 34/100/39 38/117/39 33/97/39
f 4/11/40 13/36/40 21/60/40 7/18/40
