# Blender 3.5.0
# www.blender.org
mtllib Sword.mtl
o Cube
v 0.138178 1.209283 0.143613
v 0.138178 0.000000 0.143613
v 0.000000 1.209283 0.143613
v 0.000000 0.000000 0.143613
v 0.138178 1.209283 0.000000
v 0.138178 0.000000 0.000000
v 0.000000 0.000000 0.000000
v 0.000000 1.209283 0.000000
v 0.138178 0.944050 0.143613
v 0.000000 0.944050 0.143613
v 0.138178 0.944050 0.000000
v 0.727987 1.103593 0.000000
v 0.727987 1.103593 0.143613
v 0.727987 0.838360 0.143613
v 0.727987 0.838360 0.000000
v -0.138178 1.209283 0.143613
v -0.138178 0.000000 0.143613
v -0.138178 1.209283 0.000000
v -0.138178 0.000000 0.000000
v -0.138178 0.944050 0.143613
v -0.138178 0.944050 0.000000
v -0.727987 1.103593 0.000000
v -0.727987 1.103593 0.143613
v -0.727987 0.838360 0.143613
v -0.727987 0.838360 0.000000
v 0.138178 1.209283 -0.143613
v 0.138178 0.000000 -0.143613
v 0.000000 1.209283 -0.143613
v 0.000000 0.000000 -0.143613
v 0.138178 0.944050 -0.143613
v 0.000000 0.944050 -0.143613
v 0.727987 1.103593 -0.143613
v 0.727987 0.838360 -0.143613
v -0.138178 1.209283 -0.143613
v -0.138178 0.000000 -0.143613
v -0.138178 0.944050 -0.143613
v -0.727987 1.103593 -0.143613
v -0.727987 0.838360 -0.143613
vn -0.0000 -1.0000 -0.0000
vn 0.1764 0.9843 -0.0000
vn -0.0000 -0.0000 1.0000
vn -0.0000 1.0000 -0.0000
vn 1.0000 -0.0000 -0.0000
vn -0.1764 -0.9843 -0.0000
vn -0.0000 -0.0000 -1.0000
vn -0.1764 0.9843 -0.0000
vn -1.0000 -0.0000 -0.0000
vn 0.1764 -0.9843 -0.0000
vt 0.625000 0.750000
vt 0.375000 0.750000
vt 0.625000 0.875000
vt 0.750000 0.750000
vt 0.250000 0.750000
vt 0.375000 0.875000
vt 0.000000 0.000000
vt 0.625000 0.625000
vt 0.375000 0.625000
vt 0.250000 0.625000
vt 0.750000 0.625000
vt 0.570167 0.750000
vt 0.570167 0.875000
vt 0.000000 0.000000
vt 0.570167 0.625000
vt 0.000000 0.000000
vt 0.625000 0.625000
vt 0.625000 0.750000
vt 0.570167 0.750000
vt 0.000000 0.000000
vt 0.570167 0.625000
vt 0.625000 0.750000
vt 0.375000 0.750000
vt 0.000000 0.000000
vt 0.625000 0.625000
vt 0.375000 0.625000
vt 0.570167 0.750000
vt 0.000000 0.000000
vt 0.570167 0.625000
vt 0.000000 0.000000
vt 0.625000 0.625000
vt 0.625000 0.750000
vt 0.570167 0.750000
vt 0.000000 0.000000
vt 0.570167 0.625000
vt 0.625000 0.750000
vt 0.375000 0.750000
vt 0.625000 0.875000
vt 0.750000 0.750000
vt 0.250000 0.750000
vt 0.375000 0.875000
vt 0.570167 0.750000
vt 0.570167 0.875000
vt 0.625000 0.750000
vt 0.570167 0.750000
vt 0.625000 0.750000
vt 0.375000 0.750000
vt 0.570167 0.750000
vt 0.625000 0.750000
vt 0.570167 0.750000
s 0
usemtl Material
f 7/10/1 6/9/1 2/2/1 4/5/1
f 5/8/2 1/1/2 13/18/2 12/17/2
f 9/12/3 1/1/3 3/3/3 10/13/3
f 5/8/4 8/11/4 3/4/4 1/1/4
f 2/2/3 9/12/3 10/13/3 4/6/3
f 6/9/5 11/15/5 9/12/5 2/2/5
f 15/21/5 12/17/5 13/18/5 14/19/5
f 9/12/6 11/15/6 15/21/6 14/19/6
f 11/14/7 5/7/7 12/16/7 15/20/7
f 1/1/3 9/12/3 14/19/3 13/18/3
f 7/10/1 4/5/1 17/23/1 19/26/1
f 18/25/8 22/31/8 23/32/8 16/22/8
f 20/27/3 10/13/3 3/3/3 16/22/3
f 18/25/4 16/22/4 3/4/4 8/11/4
f 17/23/3 4/6/3 10/13/3 20/27/3
f 19/26/9 17/23/9 20/27/9 21/29/9
f 25/35/9 24/33/9 23/32/9 22/31/9
f 20/27/10 24/33/10 25/35/10 21/29/10
f 21/28/7 25/34/7 22/30/7 18/24/7
f 16/22/3 23/32/3 24/33/3 20/27/3
f 7/10/1 29/40/1 27/37/1 6/9/1
f 5/8/2 12/17/2 32/44/2 26/36/2
f 30/42/7 31/43/7 28/38/7 26/36/7
f 5/8/4 26/36/4 28/39/4 8/11/4
f 27/37/7 29/41/7 31/43/7 30/42/7
f 6/9/5 27/37/5 30/42/5 11/15/5
f 15/21/5 33/45/5 32/44/5 12/17/5
f 30/42/6 33/45/6 15/21/6 11/15/6
f 26/36/7 32/44/7 33/45/7 30/42/7
f 7/10/1 19/26/1 35/47/1 29/40/1
f 18/25/8 34/46/8 37/49/8 22/31/8
f 36/48/7 34/46/7 28/38/7 31/43/7
f 18/25/4 8/11/4 28/39/4 34/46/4
f 35/47/7 36/48/7 31/43/7 29/41/7
f 19/26/9 21/29/9 36/48/9 35/47/9
f 25/35/9 22/31/9 37/49/9 38/50/9
f 36/48/10 21/29/10 25/35/10 38/50/10
f 34/46/7 36/48/7 38/50/7 37/49/7
o Cube.001
v 0.000000 4.601150 0.000000
v 0.000000 1.126038 0.000000
v 0.098911 4.208876 0.023474
v 0.183427 1.126038 0.093939
v 0.000000 1.126038 0.093939
v 0.000000 4.419121 0.023474
v 0.138558 4.311598 0.000000
v 0.223074 1.126038 0.000000
v -0.098911 4.208876 0.023474
v -0.183427 1.126038 0.093939
v -0.138558 4.311598 0.000000
v -0.223074 1.126038 0.000000
v 0.098911 4.208876 -0.023474
v 0.183427 1.126038 -0.093939
v 0.000000 1.126038 -0.093939
v 0.000000 4.419121 -0.023474
v -0.098911 4.208876 -0.023474
v -0.183427 1.126038 -0.093939
vn 0.8166 0.0285 0.5764
vn 0.0166 0.0223 0.9996
vn -0.0000 -1.0000 -0.0000
vn 0.2572 0.1222 0.9586
vn -0.8166 0.0285 0.5764
vn -0.0166 0.0223 0.9996
vn -0.2572 0.1222 0.9586
vn 0.8166 0.0285 -0.5764
vn 0.0166 0.0223 -0.9996
vn 0.2572 0.1222 -0.9586
vn -0.8166 0.0285 -0.5764
vn -0.0166 0.0223 -0.9996
vn -0.2572 0.1222 -0.9586
vt 0.250000 0.625000
vt 0.750000 0.625000
vt 0.375000 0.250000
vt 0.125000 0.500000
vt 0.625000 0.250000
vt 0.875000 0.500000
vt 0.625000 0.375000
vt 0.750000 0.500000
vt 0.375000 0.375000
vt 0.250000 0.500000
vt 0.375000 0.125000
vt 0.125000 0.625000
vt 0.625000 0.125000
vt 0.875000 0.625000
vt 0.375000 0.250000
vt 0.125000 0.500000
vt 0.625000 0.250000
vt 0.875000 0.500000
vt 0.375000 0.125000
vt 0.125000 0.625000
vt 0.625000 0.125000
vt 0.875000 0.625000
vt 0.375000 0.250000
vt 0.125000 0.500000
vt 0.625000 0.250000
vt 0.875000 0.500000
vt 0.625000 0.375000
vt 0.750000 0.500000
vt 0.375000 0.375000
vt 0.250000 0.500000
vt 0.375000 0.250000
vt 0.125000 0.500000
vt 0.625000 0.250000
vt 0.875000 0.500000
s 0
f 45/61/11 41/53/11 42/55/11 46/63/11
f 41/53/12 44/59/12 43/57/12 42/55/12
f 43/58/13 40/52/13 46/64/13 42/56/13
f 41/54/14 45/62/14 39/51/14 44/60/14
f 49/69/15 50/71/15 48/67/15 47/65/15
f 47/65/16 48/67/16 43/57/16 44/59/16
f 43/58/13 48/68/13 50/72/13 40/52/13
f 47/66/17 44/60/17 39/51/17 49/70/17
f 45/61/18 46/63/18 52/75/18 51/73/18
f 51/73/19 52/75/19 53/77/19 54/79/19
f 53/78/13 52/76/13 46/64/13 40/52/13
f 51/74/20 54/80/20 39/51/20 45/62/20
f 49/69/21 55/81/21 56/83/21 50/71/21
f 55/81/22 54/79/22 53/77/22 56/83/22
f 53/78/13 40/52/13 50/72/13 56/84/13
f 55/82/23 49/70/23 39/51/23 54/80/23
