# Made in Blockbench 4.7.2
mtllib TableX2Y1.mtl

o cube
v 1 2.5 2
v 1 2.5 -1
v 1 2.375 2
v 1 2.375 -1
v -1 2.5 2
v -1 2.5 -1
v -1 2.375 2
v -1 2.375 -1
vt 2 1
vt 0 1
vt 0 0.875
vt 2 0.875
vt 2 0.875
vt 2 1
vt 0 1
vt 0 0.875
vt 0 -1
vt 2 -1
vt 2 1
vt 0 1
vt 2 -1
vt 2 1
vt 0 1
vt 0 -1
vt 2 0.875
vt 2 1
vt 0 1
vt 0 0.875
vt 2 1
vt 0 1
vt 0 0.875
vt 2 0.875
vn 1 0 0
vn -1 0 0
vn 0 1 0
vn 0 -1 0
vn 0 0 1
vn 0 0 -1
usemtl none
f 2/1/1 1/2/1 3/3/1 4/4/1
f 7/5/2 5/6/2 6/7/2 8/8/2
f 5/9/3 1/10/3 2/11/3 6/12/3
f 4/13/4 3/14/4 7/15/4 8/16/4
f 3/17/5 1/18/5 5/19/5 7/20/5
f 6/21/6 2/22/6 4/23/6 8/24/6
o Leg
v -0.75 2.375 -0.75
v -0.75 2.375 -0.875
v -0.75 0 -0.75
v -0.75 0 -0.875
v -0.875 2.375 -0.75
v -0.875 2.375 -0.875
v -0.875 0 -0.75
v -0.875 0 -0.875
vt 0.125 1
vt 0 1
vt 0 -1.375
vt 0.125 -1.375
vt 0.125 -1.375
vt 0.125 1
vt 0 1
vt 0 -1.375
vt 0.125 0.875
vt 0.125 1
vt 0 1
vt 0 0.875
vt 0.125 -1.375
vt 0.125 1
vt 0 1
vt 0 -1.375
vt 0.125 1
vt 0 1
vt 0 -1.375
vt 0.125 -1.375
vn 1 0 0
vn -1 0 0
vn 0 -1 0
vn 0 0 1
vn 0 0 -1
usemtl none
f 10/25/7 9/26/7 11/27/7 12/28/7
f 15/29/8 13/30/8 14/31/8 16/32/8
f 12/33/9 11/34/9 15/35/9 16/36/9
f 11/37/10 9/38/10 13/39/10 15/40/10
f 14/41/11 10/42/11 12/43/11 16/44/11
o Leg
v 0.875 2.375 -0.75
v 0.875 2.375 -0.875
v 0.875 0 -0.75
v 0.875 0 -0.875
v 0.75 2.375 -0.75
v 0.75 2.375 -0.875
v 0.75 0 -0.75
v 0.75 0 -0.875
vt 0.125 1
vt 0 1
vt 0 -1.375
vt 0.125 -1.375
vt 0.125 -1.375
vt 0.125 1
vt 0 1
vt 0 -1.375
vt 0.125 0.875
vt 0.125 1
vt 0 1
vt 0 0.875
vt 0.125 -1.375
vt 0.125 1
vt 0 1
vt 0 -1.375
vt 0.125 1
vt 0 1
vt 0 -1.375
vt 0.125 -1.375
vn 1 0 0
vn -1 0 0
vn 0 -1 0
vn 0 0 1
vn 0 0 -1
usemtl none
f 18/45/12 17/46/12 19/47/12 20/48/12
f 23/49/13 21/50/13 22/51/13 24/52/13
f 20/53/14 19/54/14 23/55/14 24/56/14
f 19/57/15 17/58/15 21/59/15 23/60/15
f 22/61/16 18/62/16 20/63/16 24/64/16
o Leg
v -0.75 2.375 1.875
v -0.75 2.375 1.75
v -0.75 0 1.875
v -0.75 0 1.75
v -0.875 2.375 1.875
v -0.875 2.375 1.75
v -0.875 0 1.875
v -0.875 0 1.75
vt 0.125 1
vt 0 1
vt 0 -1.375
vt 0.125 -1.375
vt 0.125 -1.375
vt 0.125 1
vt 0 1
vt 0 -1.375
vt 0.125 0.875
vt 0.125 1
vt 0 1
vt 0 0.875
vt 0.125 -1.375
vt 0.125 1
vt 0 1
vt 0 -1.375
vt 0.125 1
vt 0 1
vt 0 -1.375
vt 0.125 -1.375
vn 1 0 0
vn -1 0 0
vn 0 -1 0
vn 0 0 1
vn 0 0 -1
usemtl none
f 26/65/17 25/66/17 27/67/17 28/68/17
f 31/69/18 29/70/18 30/71/18 32/72/18
f 28/73/19 27/74/19 31/75/19 32/76/19
f 27/77/20 25/78/20 29/79/20 31/80/20
f 30/81/21 26/82/21 28/83/21 32/84/21
o Leg
v 0.875 2.375 1.875
v 0.875 2.375 1.75
v 0.875 0 1.875
v 0.875 0 1.75
v 0.75 2.375 1.875
v 0.75 2.375 1.75
v 0.75 0 1.875
v 0.75 0 1.75
vt 0.125 1
vt 0 1
vt 0 -1.375
vt 0.125 -1.375
vt 0.125 -1.375
vt 0.125 1
vt 0 1
vt 0 -1.375
vt 0.125 0.875
vt 0.125 1
vt 0 1
vt 0 0.875
vt 0.125 -1.375
vt 0.125 1
vt 0 1
vt 0 -1.375
vt 0.125 1
vt 0 1
vt 0 -1.375
vt 0.125 -1.375
vn 1 0 0
vn -1 0 0
vn 0 -1 0
vn 0 0 1
vn 0 0 -1
usemtl none
f 34/85/22 33/86/22 35/87/22 36/88/22
f 39/89/23 37/90/23 38/91/23 40/92/23
f 36/93/24 35/94/24 39/95/24 40/96/24
f 35/97/25 33/98/25 37/99/25 39/100/25
f 38/101/26 34/102/26 36/103/26 40/104/26